<svg width="33" height="33" viewBox="0 0 33 33" fill="none" xmlns="http://www.w3.org/2000/svg">
<path d="M16.5 32.5C25.3366 32.5 32.5 25.3366 32.5 16.5C32.5 7.66345 25.3366 0.5 16.5 0.5C7.66344 0.5 0.5 7.66345 0.5 16.5C0.5 25.3366 7.66344 32.5 16.5 32.5Z" fill="url(#paint0_linear_4207_7164)"/>
<path d="M26.6036 15.5214L22.0843 11.0021L22.0761 10.9939L22.0582 10.9783C22.029 10.9518 21.9984 10.9269 21.9665 10.9037C21.9442 10.8858 21.9218 10.8687 21.898 10.853C21.8875 10.8456 21.8771 10.8396 21.8659 10.8329C21.6083 10.6641 21.2966 10.5985 20.9927 10.6489C20.6889 10.6993 20.4151 10.8621 20.2258 11.105L13.1972 18.1344V11.8721C13.1972 11.5429 13.0664 11.2272 12.8336 10.9944C12.6008 10.7616 12.2851 10.6309 11.9559 10.6309C11.6267 10.6309 11.311 10.7616 11.0782 10.9944C10.8454 11.2272 10.7147 11.5429 10.7147 11.8721V18.1344L8.14864 15.5683C7.91408 15.3447 7.60136 15.2216 7.27729 15.2255C6.95322 15.2293 6.64351 15.3598 6.41434 15.5889C6.18517 15.8181 6.05472 16.1278 6.05087 16.4519C6.04702 16.776 6.17006 17.0887 6.39372 17.3232L11.0785 22.008C11.1079 22.0378 11.139 22.0659 11.1717 22.0922C11.203 22.1176 11.2358 22.1422 11.2686 22.1668C11.4378 22.2765 11.6313 22.3433 11.8322 22.3614H11.8374C11.8776 22.3651 11.9179 22.3673 11.9582 22.3673H11.9768C12.0106 22.3673 12.0441 22.3658 12.0774 22.3628H12.102C12.1341 22.3591 12.1662 22.3554 12.1975 22.3487H12.2116C12.2467 22.3412 12.2817 22.333 12.316 22.3226H12.322C12.3594 22.3113 12.3962 22.2981 12.4323 22.2831C12.4837 22.2618 12.5335 22.2369 12.5814 22.2085L12.6097 22.1921C12.6566 22.1635 12.7015 22.1316 12.7439 22.0967L12.7566 22.0855C12.7827 22.0632 12.8088 22.0408 12.8311 22.0154L19.9582 14.884V21.1268C19.9582 21.456 20.0889 21.7717 20.3217 22.0045C20.5545 22.2373 20.8702 22.3681 21.1994 22.3681C21.5286 22.3681 21.8443 22.2373 22.0771 22.0045C22.3099 21.7717 22.4407 21.456 22.4407 21.1268V14.8646L24.8487 17.277C25.0824 17.5052 25.3967 17.632 25.7233 17.63C26.05 17.628 26.3627 17.4973 26.5936 17.2663C26.8245 17.0353 26.9551 16.7225 26.957 16.3959C26.9588 16.0692 26.8319 15.755 26.6036 15.5214Z" fill="white"/>
<defs>
<linearGradient id="paint0_linear_4207_7164" x1="2.64109" y1="8.49851" x2="30.3589" y2="24.5007" gradientUnits="userSpaceOnUse">
<stop offset="0.13" stop-color="#348BED"/>
<stop offset="0.31" stop-color="#2B80E8"/>
<stop offset="0.64" stop-color="#1461DB"/>
<stop offset="0.72" stop-color="#0E57D7"/>
</linearGradient>
</defs>
</svg>
